<svg xmlns="http://www.w3.org/2000/svg" viewBox="0 20.809999465942383 40.90999984741211 27.6299991607666" data-asc="0.96875" width="40.90999984741211" height="27.6299991607666"><defs/><g fill="#000000"><g transform="translate(0, 0)"><path d="M0 48.44L0 21.16L8.26 21.16L8.26 26.17L8.56 26.17Q9.41 23.69 11.43 22.25Q13.46 20.81 16.26 20.81Q19.11 20.81 21.13 22.27Q23.15 23.72 23.70 26.17L23.99 26.17Q24.75 23.74 26.97 22.27Q29.19 20.81 32.21 20.81Q36.08 20.81 38.49 23.29Q40.91 25.76 40.91 30.08L40.91 48.44L32.23 48.44L32.23 32.07Q32.23 30.02 31.18 28.95Q30.13 27.88 28.46 27.88Q26.67 27.88 25.65 29.04Q24.63 30.20 24.63 32.16L24.63 48.44L16.28 48.44L16.28 31.98Q16.28 30.08 15.25 28.98Q14.22 27.88 12.54 27.88Q11.40 27.88 10.53 28.42Q9.66 28.96 9.17 29.95Q8.68 30.95 8.68 32.30L8.68 48.44L0 48.44Z"/></g></g></svg>